<svg viewBox="0 0 24 24" fill="#000" xmlns="http://www.w3.org/2000/svg">
  <path fill-rule="evenodd" clip-rule="evenodd" d="M2 12C2 6.4861 6.4861 2 12 2C17.5139 2 22 6.4861 22 12C22 17.5139 17.5139 22 12 22C6.4861 22 2 17.5139 2 12ZM15.4786 16.3596C16.119 16.8783 17 15.7556 16.119 15.2396C13.329 13.6054 10.0018 13.5221 6.9219 14.2399C6.20049 14.3407 6.25898 15.4786 7.00156 15.4786C10 15 12.5856 14.6225 15.4786 16.3596ZM16.5447 13.8741C12.9822 12.0279 10.5 12 6.80162 12.7998C5.87245 12.7998 5.81376 11.4868 6.6423 11.2409C10.166 10.323 14.1022 10.5867 17.278 12.4795C18 13 17.6389 14.306 16.5447 13.8741ZM17.6389 10.88C18.6348 11.6318 19.6027 9.88208 18.5573 9.28054C15.0151 7.18133 9.97139 6.88577 6.04249 8.04186C5.06888 8.36218 5.5 10 6.28147 9.88035C10.4005 8.86838 14.2647 8.84207 17.6389 10.88Z"></path>
</svg>